<svg width="24" height="24" viewBox="0 0 24 24" fill="none" xmlns="http://www.w3.org/2000/svg">
<path fill-rule="evenodd" clip-rule="evenodd" d="M17.4973 15.9538C18.8415 14.2734 19.6453 12.1419 19.6453 9.82266C19.6453 4.39775 15.2476 0 9.82266 0C4.39775 0 0 4.39775 0 9.82266C0 15.2476 4.39775 19.6453 9.82266 19.6453C12.1419 19.6453 14.2734 18.8415 15.9538 17.4973L22.1369 23.6803C22.5631 24.1066 23.2541 24.1066 23.6803 23.6803C24.1066 23.2541 24.1066 22.5631 23.6803 22.1369L17.4973 15.9538ZM9.82266 17.4735C5.59724 17.4735 2.17186 14.0481 2.17186 9.82266C2.17186 5.59724 5.59724 2.17186 9.82266 2.17186C14.0481 2.17186 17.4735 5.59724 17.4735 9.82266C17.4735 14.0481 14.0481 17.4735 9.82266 17.4735Z" fill="white"/>
</svg>
